HIERARCHY
ROOT Hips
{
	OFFSET 0.000000 0.000000 0.000000
	CHANNELS 6 Xposition Yposition Zposition Zrotation Yrotation Xrotation 
	JOINT LHipJoint
	{
		OFFSET 0.000000 0.000000 0.000000
		CHANNELS 3 Zrotation Yrotation Xrotation
		JOINT LeftUpLeg
		{
			OFFSET 1.363060 -1.794630 0.839290
			CHANNELS 3 Zrotation Yrotation Xrotation
			JOINT LeftLeg
			{
				OFFSET 2.448110 -6.726130 0.000000
				CHANNELS 3 Zrotation Yrotation Xrotation
				JOINT LeftFoot
				{
					OFFSET 2.562200 -7.039590 0.000000
					CHANNELS 3 Zrotation Yrotation Xrotation
					JOINT LeftToeBase
					{
						OFFSET 0.157640 -0.433110 2.322550
						CHANNELS 3 Zrotation Yrotation Xrotation
						End Site
						{
							OFFSET 0.000000 0.000000 0.000000
						}
					}
				}
			}
		}
	}
	JOINT RHipJoint
	{
		OFFSET 0.000000 0.000000 0.000000
		CHANNELS 3 Zrotation Yrotation Xrotation
		JOINT RightUpLeg
		{
			OFFSET -1.305520 -1.794630 0.839290
			CHANNELS 3 Zrotation Yrotation Xrotation
			JOINT RightLeg
			{
				OFFSET -2.542530 -6.985550 0.000000
				CHANNELS 3 Zrotation Yrotation Xrotation
				JOINT RightFoot
				{
					OFFSET -2.568260 -7.056230 0.000000
					CHANNELS 3 Zrotation Yrotation Xrotation
					JOINT RightToeBase
					{
						OFFSET -0.164730 -0.452590 2.363150
						CHANNELS 3 Zrotation Yrotation Xrotation
						End Site
						{
							OFFSET 0.000000 0.000000 0.000000
						}
					}
				}
			}
		}
	}
	JOINT LowerBack
	{
		OFFSET 0.000000 0.000000 0.000000
		CHANNELS 3 Zrotation Yrotation Xrotation
		JOINT Spine
		{
			OFFSET 0.028270 2.035590 -0.193380
			CHANNELS 3 Zrotation Yrotation Xrotation
			JOINT Spine1
			{
				OFFSET 0.056720 2.048850 -0.042750
				CHANNELS 3 Zrotation Yrotation Xrotation
				JOINT Neck
				{
					OFFSET 0.000000 0.000000 0.000000
					CHANNELS 3 Zrotation Yrotation Xrotation
					JOINT Neck1
					{
						OFFSET -0.054170 1.746240 0.172020
						CHANNELS 3 Zrotation Yrotation Xrotation
						JOINT Head
						{
							OFFSET 0.104070 1.761360 -0.123970
							CHANNELS 3 Zrotation Yrotation Xrotation
							End Site
							{
								OFFSET 0.000000 0.000000 0.000000
							}
						}
					}
				}
				JOINT LeftShoulder
				{
					OFFSET 0.000000 0.000000 0.000000
					CHANNELS 3 Zrotation Yrotation Xrotation
					JOINT LeftArm
					{
						OFFSET 3.362410 1.200890 -0.311210
						CHANNELS 3 Zrotation Yrotation Xrotation
						JOINT LeftForeArm
						{
							OFFSET 4.983000 -0.000000 -0.000000
							CHANNELS 3 Zrotation Yrotation Xrotation
							JOINT LeftHand
							{
								OFFSET 3.483560 -0.000000 -0.000000
								CHANNELS 3 Zrotation Yrotation Xrotation
								JOINT LeftFingerBase
								{
									OFFSET 0.000000 0.000000 0.000000
									CHANNELS 3 Zrotation Yrotation Xrotation
									JOINT LeftHandIndex1
									{
										OFFSET 0.715260 -0.000000 -0.000000
										CHANNELS 3 Zrotation Yrotation Xrotation
										End Site
										{
											OFFSET 0.000000 0.000000 0.000000
										}
									}
								}
								JOINT LThumb
								{
									OFFSET 0.000000 0.000000 0.000000
									CHANNELS 3 Zrotation Yrotation Xrotation
									End Site
									{
										OFFSET 0.000000 0.000000 0.000000
									}
								}
							}
						}
					}
				}
				JOINT RightShoulder
				{
					OFFSET 0.000000 0.000000 0.000000
					CHANNELS 3 Zrotation Yrotation Xrotation
					JOINT RightArm
					{
						OFFSET -3.136600 1.374050 -0.404650
						CHANNELS 3 Zrotation Yrotation Xrotation
						JOINT RightForeArm
						{
							OFFSET -5.241900 -0.000000 -0.000000
							CHANNELS 3 Zrotation Yrotation Xrotation
							JOINT RightHand
							{
								OFFSET -3.444170 -0.000000 -0.000000
								CHANNELS 3 Zrotation Yrotation Xrotation
								JOINT RightFingerBase
								{
									OFFSET 0.000000 0.000000 0.000000
									CHANNELS 3 Zrotation Yrotation Xrotation
									JOINT RightHandIndex1
									{
										OFFSET -0.622530 -0.000000 -0.000000
										CHANNELS 3 Zrotation Yrotation Xrotation
										End Site
										{
											OFFSET 0.000000 0.000000 0.000000
										}
									}
								}
								JOINT RThumb
								{
									OFFSET 0.000000 0.000000 0.000000
									CHANNELS 3 Zrotation Yrotation Xrotation
									End Site
									{
										OFFSET 0.000000 0.000000 0.000000
									}
								}
							}
						}
					}
				}
			}
		}
	}
}
MOTION
Frames: 5
Frame Time: 0.008333
-0.676240 18.309185 5.459253 -1.258640 -2.703936 -1.284473 0.721470 3.850519 3.402672 -12.747365 -6.661954 -4.719194 0.988064 7.031154 23.025388 -0.723048 6.720742 -13.507641 7.913400 -16.055200 -52.250100 -4.052961 -4.179133 2.005435 18.085524 -1.234129 6.510219 0.330371 0.975462 1.682514 0.302924 -3.542989 -9.202193 -0.022300 0.963300 -2.647900 4.331481 1.263030 -0.487949 -6.813149 1.589819 19.369560 -0.205148 1.321326 -16.686969 -1.647002 -3.773930 -26.571243 6.477593 -5.689120 31.259751 0.922700 -1.688700 9.906000 3.386461 -7.161238 0.576793 -92.323647 9.832849 24.545493 25.116309 -34.279958 -6.685423 0.555611 0.085002 12.902948 10.005113 -26.611050 -4.317000 -7.125000 0.000000 0.000000 -12.280000 3.323100 11.826800 -3.164327 8.969929 3.193261 95.101033 -13.939187 20.493255 -33.792327 41.550788 -10.244165 1.201773 -3.233638 19.050453 1.073375 -38.095909 0.709400 7.125000 0.000000 0.000000 37.896000 -61.321100 -16.361000 
-0.674377 18.308891 5.458370 -1.259760 -2.662133 -1.325667 0.709994 3.852559 3.408593 -12.764390 -6.697892 -4.747550 0.994885 7.061007 23.107245 -0.766029 6.913101 -13.566851 7.997300 -16.117300 -52.553100 -4.064403 -4.178699 2.006096 18.082996 -1.292075 6.547423 0.329919 0.977824 1.684125 0.297617 -3.509640 -9.207592 -0.021100 0.938100 -2.578600 4.427783 1.266874 -0.469460 -6.930229 1.614459 19.420186 -0.209329 1.321983 -16.705026 -1.584693 -3.778911 -26.540350 6.398019 -5.691003 31.261729 0.896000 -1.697000 9.902700 3.408301 -7.164482 0.572912 -92.346518 9.819501 24.474060 25.099836 -34.271937 -6.683388 0.558949 0.079698 12.942270 10.049823 -26.790987 -4.362000 -7.125000 0.000000 0.000000 -12.262800 3.145000 11.850400 -3.165001 8.967487 3.189158 95.126343 -13.953818 20.458284 -33.798461 41.552915 -10.239982 1.195947 -3.229900 19.001297 0.865565 -37.960510 0.821700 7.125000 0.000000 0.000000 37.541800 -61.258100 -16.126200 
-0.671827 18.307812 5.458566 -1.314832 -2.637962 -1.374696 0.721143 3.861023 3.425009 -12.741038 -6.770418 -4.723530 0.998456 7.076655 23.160377 -0.792140 7.050023 -13.678135 8.026600 -16.138800 -52.658500 -4.050615 -4.181117 2.024663 18.106699 -1.326983 6.584240 0.329412 0.979976 1.685231 0.294478 -3.487026 -9.205332 -0.021700 0.951900 -2.616400 4.462207 1.284114 -0.543013 -6.794155 1.633972 19.610743 -0.293456 1.321970 -16.715883 -1.649531 -3.787751 -26.547905 6.432697 -5.689626 31.237964 0.909300 -1.694600 9.905200 3.410701 -7.160123 0.555568 -92.383378 9.808087 24.509292 25.152661 -34.335538 -6.707788 0.556775 0.080592 12.892371 9.932384 -26.769038 -4.305100 -7.125000 0.000000 0.000000 -12.330200 3.180900 11.910400 -3.198796 8.961049 3.174086 95.103397 -13.915683 20.396879 -33.767736 41.547680 -10.253826 1.192379 -3.242071 18.954683 0.959727 -38.393186 0.775300 7.125000 0.000000 0.000000 38.115000 -61.566200 -16.694100 
-0.670552 18.306243 5.460037 -1.365994 -2.626365 -1.436737 0.733183 3.872309 3.448703 -12.702583 -6.773535 -4.707284 1.006469 7.088261 23.209375 -0.798050 7.081404 -13.711721 8.033200 -16.143600 -52.682300 -4.036478 -4.186732 2.051442 18.127957 -1.348181 6.626993 0.329343 0.982694 1.686047 0.299282 -3.503311 -9.178982 -0.024300 1.005600 -2.764200 4.467669 1.309762 -0.678908 -6.645342 1.661197 19.894156 -0.378970 1.327565 -16.717438 -1.781833 -3.815235 -26.617107 6.629438 -5.742534 31.257746 0.960400 -1.696400 9.936200 3.427482 -7.152929 0.533128 -92.371734 9.800589 24.671440 25.232345 -34.423950 -6.742374 0.553832 0.084969 12.743496 9.770969 -26.674398 -4.218200 -7.125000 0.000000 0.000000 -12.420400 3.291000 11.976200 -3.240334 8.953700 3.151525 95.087814 -13.840852 20.309684 -33.710089 41.535841 -10.269217 1.197439 -3.262938 18.983524 1.401949 -39.066782 0.534300 7.125000 0.000000 0.000000 39.321700 -61.980500 -17.702300 
-0.669767 18.305360 5.461606 -1.398494 -2.651337 -1.495959 0.739169 3.881696 3.468070 -12.671372 -6.707926 -4.703069 1.013851 7.096010 23.244791 -0.804331 7.099042 -13.691696 8.065700 -16.167400 -52.798900 -4.029735 -4.191989 2.073381 18.135797 -1.332885 6.677492 0.329355 0.985033 1.686686 0.302041 -3.511136 -9.163302 -0.024800 1.016300 -2.793700 4.476164 1.348683 -0.803014 -6.561046 1.708628 20.139898 -0.443156 1.344543 -16.713772 -1.925870 -3.841807 -26.688121 6.890700 -5.809598 31.279486 1.026700 -1.696500 9.969900 3.454554 -7.148853 0.513281 -92.374778 9.754362 24.757517 25.229491 -34.430357 -6.740798 0.553800 0.084477 12.671370 9.699906 -26.680901 -4.185900 -7.125000 0.000000 0.000000 -12.462800 3.294300 12.018500 -3.272825 8.948831 3.130339 95.080853 -13.784706 20.245544 -33.660541 41.500825 -10.246693 1.198791 -3.266742 19.072223 1.519719 -39.085450 0.468600 7.125000 0.000000 0.000000 39.456700 -61.969800 -17.763800 
